<?xml version="1.0" encoding="UTF-8"?>
<svg width="30px" height="26px" viewBox="0 0 30 26" version="1.1" xmlns="http://www.w3.org/2000/svg" xmlns:xlink="http://www.w3.org/1999/xlink">
    <!-- Generator: Sketch 61.2 (89653) - https://sketch.com -->
    <title>tl</title>
    <desc>Created with Sketch.</desc>
    <g id="Page-1" stroke="none" stroke-width="1" fill="none" fill-rule="evenodd">
        <g id="web-copy" transform="translate(-1512.000000, -6272.000000)" fill="#FFFFFF" fill-rule="nonzero">
            <g id="tl" transform="translate(1512.000000, 6272.000000)">
                <path d="M29.5367902,0.694885254 C29.1703504,0.246734648 28.6214918,-1.15463195e-13 27.9911512,-1.15463195e-13 C27.6485151,-1.15463195e-13 27.2855085,0.072097793 26.9124311,0.214691133 L1.51799142,9.90852357 C0.17033517,10.422821 -0.0111681108,11.1946106 0.000504848216,11.6088867 C0.0121778072,12.0231628 0.237168667,12.7835083 1.61183294,13.2209015 C1.62007275,13.2234192 1.62831244,13.2259369 1.63655224,13.2282257 L6.90403878,14.7356415 L9.75270208,22.881546 C10.1411146,23.9920807 11.0129255,24.6819305 12.0282453,24.6819305 C12.6684278,24.6819305 13.2980818,24.413681 13.8492292,23.9064789 L17.1073622,20.9065247 L21.8330854,24.7116852 C21.8335432,24.7121429 21.8342298,24.7123718 21.8346876,24.7128296 L21.8795484,24.7489929 C21.8836683,24.7521973 21.8880171,24.7556305 21.8921369,24.7588348 C22.4174208,25.1662445 22.9907697,25.3816223 23.5508436,25.3816223 L23.5510725,25.3816223 C24.6453565,25.3816223 25.5167097,24.5716095 25.7705396,23.3182526 L29.9313825,2.77290346 C30.0984663,1.94824219 29.9583906,1.21032715 29.5367902,0.694885254 L29.5367902,0.694885254 Z M8.66620005,14.4493103 L18.8287824,9.25758363 L12.5008863,15.9814453 C12.3972028,16.0915375 12.3237318,16.2263489 12.2875684,16.3730621 L11.0673994,21.3155365 L8.66620005,14.4493103 Z M12.658357,22.6132965 C12.6162427,22.6519775 12.5738996,22.6865387 12.5315565,22.7183532 L13.663606,18.1333923 L15.722856,19.7916412 L12.658357,22.6132965 Z M28.2085889,2.42385867 L24.047746,22.9694367 C24.0076918,23.1660462 23.8797468,23.6235809 23.5508436,23.6235809 C23.3883375,23.6235809 23.1841749,23.5350036 22.9752058,23.3740997 L17.6202863,19.0624237 C17.6195997,19.061737 17.6186842,19.0610504 17.6177686,19.0605926 L14.4315046,16.4948273 L23.5824293,6.77124023 C23.875398,6.45996094 23.9019483,5.98320006 23.6453718,5.64125062 C23.3885663,5.29930113 22.9232496,5.1917267 22.5426191,5.38627623 L7.49180734,13.0753327 L2.15268074,11.5477753 L27.5393385,1.85691832 C27.7538007,1.77497865 27.9034895,1.7578125 27.9911512,1.7578125 C28.0449384,1.7578125 28.140611,1.76422119 28.1760877,1.80793764 C28.2227796,1.8649292 28.2822889,2.05924986 28.2085889,2.42385867 L28.2085889,2.42385867 Z" id="Shape"></path>
            </g>
        </g>
    </g>
</svg>