<?xml version="1.0" encoding="UTF-8"?>
<svg width="30px" height="30px" viewBox="0 0 30 30" version="1.1" xmlns="http://www.w3.org/2000/svg" xmlns:xlink="http://www.w3.org/1999/xlink">
    <!-- Generator: Sketch 61.2 (89653) - https://sketch.com -->
    <title>fb</title>
    <desc>Created with Sketch.</desc>
    <g id="Page-1" stroke="none" stroke-width="1" fill="none" fill-rule="evenodd">
        <g id="web-copy" transform="translate(-1412.000000, -6270.000000)" fill="#FFFFFF" fill-rule="nonzero">
            <g id="fb" transform="translate(1412.000000, 6270.000000)">
                <path d="M25.1813978,0 C27.8382582,0 30.0000471,2.16178893 30.0000471,4.81842041 L30.0000471,25.1818085 C30.0000471,27.8382111 27.8382582,30 25.1813978,30 L4.81869636,30 C2.16183601,30 4.70845443e-05,27.8382111 4.70845443e-05,25.1815796 L4.70845443e-05,4.81842041 C4.70845443e-05,2.16178893 2.16183601,0 4.81869636,0 L25.1813978,0 Z M25.2944245,2 L4.70557554,2 C3.21404923,2 2,3.21358641 2,4.70534413 L2,25.2948873 C2,26.7864136 3.21404923,28 4.70557554,28 L15.0093885,27.99939 C15.003227,27.9528759 15.0000471,27.9054161 15.0000471,27.8572083 L15.0000471,16.071 L12.8572554,16.0713959 C12.2655958,16.0713959 11.7858594,15.5923462 11.7858594,15 C11.7858594,14.4076538 12.2655958,13.9286041 12.8572554,13.9286041 L15.0000471,13.928 L15.0000471,10.9098816 C15.0000471,8.43864439 17.0105451,6.42860414 19.4813246,6.42860414 L21.4286512,6.42860414 C22.0203108,6.42860414 22.5000471,6.90765381 22.5000471,7.5 C22.5000471,8.09234619 22.0203108,8.57139586 21.4286512,8.57139586 L19.4813246,8.57139586 C18.1918043,8.57139586 17.1428388,9.62081906 17.1428388,10.9098816 L17.1420471,13.928 L19.2858594,13.9286041 C19.877519,13.9286041 20.3572554,14.4076538 20.3572554,15 C20.3572554,15.5923462 19.877519,16.0713959 19.2858594,16.0713959 L17.1420471,16.071 L17.1428388,27.8572083 C17.1428388,27.9054161 17.1396588,27.9528759 17.1334974,27.99939 L25.2944245,28 C26.7859508,28 28,26.7864136 28,25.2946559 L28,4.70534413 C28,3.21358641 26.7859508,2 25.2944245,2 Z" id="Combined-Shape"></path>
            </g>
        </g>
    </g>
</svg>