<svg width="30" height="30" xmlns="http://www.w3.org/2000/svg"><path d="M25.181 0A4.824 4.824 0 0130 4.818v20.364A4.824 4.824 0 0125.181 30H4.82A4.824 4.824 0 010 25.182V4.818A4.824 4.824 0 014.819 0H25.18zm.113 2H4.706A2.709 2.709 0 002 4.705v20.59A2.709 2.709 0 004.706 28h10.303a1.082 1.082 0 01-.009-.143V16.071h-2.143a1.071 1.071 0 110-2.142L15 13.928V10.91a4.486 4.486 0 014.481-4.481h1.948a1.071 1.071 0 110 2.142H19.48a2.341 2.341 0 00-2.338 2.339l-.001 3.018h2.144a1.071 1.071 0 110 2.143h-2.144v11.786a.95.95 0 01-.009.142l8.161.001A2.709 2.709 0 0028 25.295V4.705A2.709 2.709 0 0025.294 2z" fill="#FFF"/></svg>