<svg width="30" height="26" xmlns="http://www.w3.org/2000/svg"><path d="M29.537.695C29.17.247 28.62 0 27.99 0c-.342 0-.705.072-1.079.215L1.518 9.909c-1.348.514-1.53 1.286-1.517 1.7.011.414.236 1.175 1.61 1.612l.026.007 5.267 1.508 2.849 8.146c.388 1.11 1.26 1.8 2.275 1.8.64 0 1.27-.268 1.821-.776l3.258-3 4.726 3.806h.002l.045.037.012.01c.525.407 1.099.623 1.659.623 1.094 0 1.966-.81 2.22-2.064l4.16-20.545c.167-.825.027-1.563-.394-2.078zM8.667 14.449l10.162-5.191L12.5 15.98a.877.877 0 00-.213.392l-1.22 4.943-2.402-6.867zm3.991 8.164a1.664 1.664 0 01-.126.105l1.132-4.585 2.059 1.659-3.065 2.821zm15.55-20.19l-4.16 20.546c-.04.197-.168.655-.497.655-.163 0-.367-.089-.576-.25l-5.355-4.312a.01.01 0 00-.002-.001l-3.186-2.566 9.15-9.724a.879.879 0 00-1.04-1.385l-15.05 7.69-5.34-1.528L27.54 1.857c.215-.082.364-.1.452-.1.054 0 .15.007.185.05.047.058.106.252.033.617z" fill="#FFF"/></svg>